<svg width="31" height="34" viewBox="0 0 31 34" fill="none" xmlns="http://www.w3.org/2000/svg">
<path d="M25.3506 12.139C25.0948 11.3856 24.6091 10.7313 23.962 10.2684C23.3149 9.80539 22.5389 9.55699 21.7432 9.55813H18.6876V0.515381L17.4035 0.698826C14.4905 1.11494 12.2215 2.59108 10.6601 5.08633C9.53428 6.88499 9.01095 8.86914 8.76809 10.3532C7.09135 11.6432 5.63264 13.4196 4.42714 15.6407C3.41119 17.5122 2.57018 19.7058 1.92739 22.1607C0.84127 26.3084 0.694246 29.7489 0.688551 29.8933L0.687988 33.875H2.93764V29.9631C2.96576 29.3844 3.67423 16.7197 10.4633 11.8973L10.8613 11.6146L10.9267 11.1307C11.2652 8.62579 12.4352 4.48846 16.4376 3.21672V11.8081H21.7432C22.0685 11.8072 22.3859 11.9082 22.6508 12.0971C22.9157 12.286 23.1147 12.5531 23.2198 12.861C24.1167 15.5087 25.658 18.8219 28.06 20.3789L27.3376 23.0879C27.0862 24.054 26.5142 24.9061 25.7154 25.5048C24.9165 26.1035 23.9381 26.4133 22.9403 26.3834C20.9246 26.323 18.8266 26.5859 16.7043 27.1647L15.8751 27.3907V33.875H18.1251V29.1267C19.6799 28.7593 21.2755 28.5932 22.8726 28.6324C24.3767 28.6738 25.8507 28.2061 27.0557 27.3049C28.2607 26.4038 29.126 25.1221 29.5114 23.6676L30.7129 19.1619L29.8181 18.7784C28.1447 18.0612 26.5581 15.7033 25.3506 12.139Z" fill="#333333"/>
</svg>
