<svg width="14" height="14" viewBox="0 0 14 14" fill="none" xmlns="http://www.w3.org/2000/svg">
<path d="M1.81604 0.354666L7.00003 5.53867L12.1627 0.375999C12.2532 0.279698 12.3622 0.20266 12.4831 0.149505C12.6041 0.0963507 12.7346 0.0681743 12.8667 0.0666656C13.1496 0.0666656 13.4209 0.179046 13.6209 0.379085C13.821 0.579124 13.9334 0.850435 13.9334 1.13333C13.9359 1.26411 13.9116 1.39401 13.8621 1.51507C13.8125 1.63613 13.7388 1.7458 13.6454 1.83733L8.42937 7L13.6454 12.216C13.8212 12.388 13.9243 12.6209 13.9334 12.8667C13.9334 13.1496 13.821 13.4209 13.6209 13.6209C13.4209 13.821 13.1496 13.9333 12.8667 13.9333C12.7308 13.939 12.5951 13.9163 12.4684 13.8667C12.3417 13.8171 12.2267 13.7417 12.1307 13.6453L7.00003 8.46133L1.8267 13.6347C1.73657 13.7278 1.6289 13.8021 1.5099 13.8533C1.3909 13.9046 1.26293 13.9318 1.13337 13.9333C0.850471 13.9333 0.57916 13.821 0.379121 13.6209C0.179082 13.4209 0.0667019 13.1496 0.0667019 12.8667C0.0642149 12.7359 0.0884784 12.606 0.138003 12.4849C0.187528 12.3639 0.261269 12.2542 0.354702 12.1627L5.5707 7L0.354702 1.784C0.178899 1.61201 0.0758108 1.37911 0.0667019 1.13333C0.0667019 0.850435 0.179082 0.579124 0.379121 0.379085C0.57916 0.179046 0.850471 0.0666656 1.13337 0.0666656C1.38937 0.0698656 1.6347 0.173332 1.81604 0.354666Z" fill="#333333"/>
</svg>
