<svg width="34" height="32" viewBox="0 0 34 32" fill="none" xmlns="http://www.w3.org/2000/svg">
<path d="M26.6539 8.34351L22.5218 2.37454C22.2155 1.93307 21.8085 1.57094 21.3343 1.31815C20.8602 1.06537 20.3327 0.929216 19.7954 0.920972L11.9537 0.808472H11.9375C7.88898 0.808472 4.78271 1.48565 2.78211 4.79055C0.919531 7.86686 0.125 13.1072 0.125 22.3125V23.4375H2.69541L1.04075 31.875H3.33364L4.9883 23.4375H5.75C7.58738 23.4539 9.35749 22.7469 10.6781 21.4693C11.8719 20.327 12.733 18.7642 13.1685 16.95L13.1724 16.9337L15.102 7.6875H12.8035L10.9768 16.4406C10.4205 18.7384 8.75698 21.1875 5.75 21.1875H2.37922C2.44032 13.2235 3.16545 8.50178 4.70691 5.95542C6.00066 3.81792 7.89172 3.05918 11.9297 3.05812L19.7631 3.17062C19.9422 3.17335 20.118 3.21872 20.2761 3.30298C20.4341 3.38725 20.5698 3.50797 20.6719 3.65514L25.3461 10.4065L31.625 11.453V12.6454L30.5779 18.2297C30.2689 19.8779 29.7406 20.7082 27.5743 20.9684L18.6934 22.4878L18.6347 31.875H20.8847L20.9316 24.3872L27.8714 23.1989C29.4436 23.0056 30.6036 22.499 31.417 21.6504C32.1124 20.9249 32.5356 19.9981 32.7894 18.6444L33.875 12.8545V9.54698L26.6539 8.34351Z" fill="#333333"/>
</svg>
