<svg width="14" height="16" viewBox="0 0 14 16" fill="none" xmlns="http://www.w3.org/2000/svg">
<path d="M12.7019 14.3954H1.46951C1.25672 14.3954 1.05265 14.4799 0.902184 14.6304C0.75172 14.7808 0.66719 14.9849 0.66719 15.1977C0.66719 15.4105 0.75172 15.6145 0.902184 15.765C1.05265 15.9155 1.25672 16 1.46951 16H12.7019C12.9147 16 13.1188 15.9155 13.2693 15.765C13.4197 15.6145 13.5043 15.4105 13.5043 15.1977C13.5043 14.9849 13.4197 14.7808 13.2693 14.6304C13.1188 14.4799 12.9147 14.3954 12.7019 14.3954ZM1.46951 12.7907H1.54172L4.88738 12.4859C5.25387 12.4493 5.59665 12.2879 5.85818 12.0285L13.079 4.80768C13.3593 4.5116 13.5108 4.11649 13.5002 3.70893C13.4897 3.30138 13.318 2.91462 13.0229 2.6334L10.8245 0.435049C10.5376 0.165547 10.1616 0.0109111 9.76814 0.000555811C9.37464 -0.00979952 8.99105 0.124849 8.69036 0.378887L1.46951 7.59974C1.21017 7.86127 1.0487 8.20405 1.01219 8.57054L0.66719 11.9162C0.656382 12.0337 0.671631 12.1522 0.711848 12.2631C0.752066 12.3741 0.816263 12.4748 0.899862 12.5581C0.974831 12.6324 1.06374 12.6912 1.16149 12.7312C1.25925 12.7711 1.36392 12.7913 1.46951 12.7907ZM9.7093 1.55829L11.8996 3.74862L10.295 5.31314L8.14479 3.16293L9.7093 1.55829ZM2.56868 8.70694L7.08573 4.22199L9.25198 6.38824L4.75901 10.8812L2.35206 11.1059L2.56868 8.70694Z" fill="#333333"/>
</svg>
