<svg width="10" height="14" viewBox="0 0 10 14" fill="none" xmlns="http://www.w3.org/2000/svg">
<path d="M8.1375 7.575C8.975 6.7375 9.4375 5.62187 9.4375 4.4375C9.4375 3.25156 8.97656 2.1375 8.1375 1.3C7.3 0.4625 6.18437 0 5 0C3.81562 0 2.7 0.460937 1.8625 1.3C1.025 2.13906 0.5625 3.25156 0.5625 4.4375C0.5625 5.43437 0.889062 6.38125 1.49062 7.15469C1.60469 7.30156 1.72813 7.44062 1.86094 7.575C1.99375 7.70781 2.13437 7.83125 2.27969 7.94531C2.89844 8.42656 3.62812 8.73281 4.40625 8.83594V10.5H2.625C2.55625 10.5 2.5 10.5562 2.5 10.625V11.5625C2.5 11.6313 2.55625 11.6875 2.625 11.6875H4.40625V13.875C4.40625 13.9438 4.4625 14 4.53125 14H5.46875C5.5375 14 5.59375 13.9438 5.59375 13.875V11.6875H7.375C7.44375 11.6875 7.5 11.6313 7.5 11.5625V10.625C7.5 10.5562 7.44375 10.5 7.375 10.5H5.59375V8.83594C6.55469 8.70781 7.44062 8.27187 8.1375 7.575ZM5 7.6875C4.13125 7.6875 3.31719 7.35 2.70156 6.73594C2.0875 6.12188 1.75 5.30625 1.75 4.4375C1.75 3.56875 2.0875 2.75469 2.70156 2.13906C3.31562 1.52344 4.13125 1.1875 5 1.1875C5.86875 1.1875 6.68281 1.525 7.29844 2.13906C7.9125 2.75312 8.25 3.56875 8.25 4.4375C8.25 5.30625 7.9125 6.12031 7.29844 6.73594C6.68281 7.35 5.86875 7.6875 5 7.6875Z" fill="#BB6BD9"/>
</svg>
