<svg width="16" height="16" viewBox="0 0 16 16" fill="none" xmlns="http://www.w3.org/2000/svg">
<path d="M8.62854 0.26035C8.46184 0.0936507 8.23575 0 8 0C7.76425 0 7.53816 0.0936507 7.37146 0.26035C7.20476 0.427049 7.11111 0.653141 7.11111 0.888889V7.11111H0.888889C0.653141 7.11111 0.427049 7.20476 0.26035 7.37146C0.0936507 7.53816 0 7.76425 0 8C0 8.23575 0.0936507 8.46184 0.26035 8.62854C0.427049 8.79524 0.653141 8.88889 0.888889 8.88889H7.11108V15.1111C7.11108 15.3469 7.20473 15.573 7.37143 15.7397C7.53813 15.9064 7.76423 16 7.99997 16C8.23572 16 8.46181 15.9064 8.62851 15.7397C8.79521 15.573 8.88886 15.3469 8.88886 15.1111V8.88889H15.1111C15.3468 8.88889 15.5729 8.79524 15.7396 8.62854C15.9063 8.46184 16 8.23575 16 8C16 7.76426 15.9063 7.53816 15.7396 7.37146C15.5729 7.20477 15.3468 7.11111 15.1111 7.11111H8.88889V0.888889C8.88889 0.653141 8.79524 0.427049 8.62854 0.26035Z" fill="#333333"/>
</svg>
