<svg width="16" height="16" viewBox="0 0 16 16" fill="none" xmlns="http://www.w3.org/2000/svg">
<path d="M3.2 0H12.8C13.6487 0 14.4626 0.337142 15.0627 0.937258C15.6629 1.53737 16 2.35131 16 3.2V12.8C16 13.6487 15.6629 14.4626 15.0627 15.0627C14.4626 15.6629 13.6487 16 12.8 16H3.2C2.35131 16 1.53737 15.6629 0.937258 15.0627C0.337142 14.4626 0 13.6487 0 12.8V3.2C0 2.35131 0.337142 1.53737 0.937258 0.937258C1.53737 0.337142 2.35131 0 3.2 0ZM3.2 1.6C2.77565 1.6 2.36869 1.76857 2.06863 2.06863C1.76857 2.36869 1.6 2.77565 1.6 3.2V12.8C1.6 13.2243 1.76857 13.6313 2.06863 13.9314C2.36869 14.2314 2.77565 14.4 3.2 14.4H12.8C13.2243 14.4 13.6313 14.2314 13.9314 13.9314C14.2314 13.6313 14.4 13.2243 14.4 12.8V3.2C14.4 2.77565 14.2314 2.36869 13.9314 2.06863C13.6313 1.76857 13.2243 1.6 12.8 1.6H3.2ZM8 9.4624L10.8288 6.6344C10.9797 6.48867 11.1818 6.40804 11.3915 6.40986C11.6013 6.41168 11.8019 6.49582 11.9503 6.64415C12.0986 6.79247 12.1827 6.99312 12.1845 7.20288C12.1864 7.41264 12.1057 7.61472 11.96 7.7656L8.5656 11.16C8.41558 11.31 8.21213 11.3942 8 11.3942C7.78787 11.3942 7.58442 11.31 7.4344 11.16L4.04 7.7656C3.89427 7.61472 3.81364 7.41264 3.81546 7.20288C3.81728 6.99312 3.90142 6.79247 4.04975 6.64415C4.19807 6.49582 4.39872 6.41168 4.60848 6.40986C4.81824 6.40804 5.02032 6.48867 5.1712 6.6344L8 9.4624Z" fill="black"/>
</svg>
