<svg width="384" height="320" viewBox="0 0 384 320" fill="none" xmlns="http://www.w3.org/2000/svg">
<path d="M344.817 320C338.756 320 332.853 318.75 327.106 316.25C321.359 313.75 317.127 311.354 314.41 309.062C311.694 306.771 308.454 303.75 304.693 300C291.318 313.333 271.256 320 244.507 320H94.0413C91.3246 320 88.9735 319.01 86.9882 317.031C85.0029 315.052 84.0103 312.708 84.0103 310C84.0103 307.292 85.0029 304.948 86.9882 302.969C88.9735 300.99 91.3246 300 94.0413 300C96.5491 300 99.527 297.656 102.975 292.969C106.423 288.281 109.715 282.344 112.849 275.156C115.984 267.969 118.649 259.375 120.843 249.375C123.037 239.375 124.134 229.583 124.134 220C124.134 214.583 123.455 210 122.097 206.25C120.738 202.5 119.067 199.271 117.081 196.562C115.096 193.854 113.111 190.885 111.125 187.656C109.14 184.427 107.468 179.635 106.11 173.281C104.752 166.927 104.072 159.167 104.072 150C104.072 144.583 104.752 140.156 106.11 136.719C107.468 133.281 109.14 130.677 111.125 128.906C113.111 127.135 115.096 125.312 117.081 123.438C119.067 121.562 120.738 118.698 122.097 114.844C123.455 110.99 124.134 106.042 124.134 100C124.134 86.6667 117.447 80 104.072 80C94.6682 80 85.6299 76.4062 76.9572 69.2188C68.2846 62.0312 63.9482 55.625 63.9482 50C63.9482 45.2083 66.1948 40.6771 70.6878 36.4062C75.1809 32.1354 79.6217 30 84.0103 30C87.5629 30 90.8544 28.9583 93.8846 26.875C96.9148 24.7917 99.7882 22.2917 102.505 19.375C105.222 16.4583 108.2 13.5417 111.439 10.625C114.678 7.70833 119.067 5.20833 124.605 3.125C130.143 1.04167 136.673 0 144.196 0C154.018 0 162.012 1.14583 168.177 3.4375C174.342 5.72917 178.939 8.69792 181.969 12.3438C185 15.9896 187.455 21.0938 189.336 27.6562C191.217 34.2188 192.523 40.7292 193.254 47.1875C193.986 53.6458 195.292 61.875 197.173 71.875C199.054 81.875 201.457 91.25 204.383 100C208.353 111.875 217.705 127.031 232.438 145.469C247.171 163.906 257.881 175.417 264.569 180C291.318 197.708 304.693 224.375 304.693 260C304.693 270.208 310.649 279.427 322.56 287.656C334.472 295.885 348.578 300 364.879 300C370.312 300 376.686 298.958 384 296.875C382.12 304.167 377.522 309.844 370.208 313.906C362.894 317.969 354.43 320 344.817 320ZM164.258 220C163.631 223.333 162.796 227.656 161.751 232.969C160.706 238.281 158.459 246.354 155.011 257.188C151.563 268.021 147.958 275.625 144.196 280H184.32C184.32 271.042 183.276 263.281 181.186 256.719C179.096 250.156 176.797 245.417 174.289 242.5C171.782 239.583 169.483 236.198 167.393 232.344C165.303 228.49 164.258 224.375 164.258 220Z" fill="#D1DCEE"/>
<path d="M176.103 211.875C176.103 216.38 178.36 225.391 182.876 238.906C187.391 252.422 189.649 261.432 189.649 265.938C189.649 275.089 188.273 283.747 185.522 291.913C182.77 300.079 178.748 306.801 173.457 312.081C168.165 317.36 162.274 320 155.783 320H60.9586C59.1242 320 57.5367 319.331 56.1962 317.994C54.8557 316.656 54.1854 315.072 54.1854 313.242C54.1854 311.412 54.8557 309.828 56.1962 308.491C57.5367 307.153 59.1242 306.484 60.9586 306.484C62.9341 306.484 64.5569 305.851 65.8268 304.584C67.0968 303.317 67.7318 301.698 67.7318 299.727C67.7318 296.066 66.3207 291.807 63.4985 286.95C60.6764 282.093 57.2898 277.095 53.3388 271.956C49.3878 266.817 45.4367 261.503 41.4857 256.012C37.5347 250.521 34.1481 244.467 31.3259 237.85C28.5038 231.233 27.0927 224.827 27.0927 218.633C27.0927 208.074 31.3259 199.345 39.7924 192.446C38.0991 187.378 33.8659 184.844 27.0927 184.844C23.0006 184.844 18.7321 183.401 14.2872 180.515C9.84227 177.628 6.34985 174.601 3.80991 171.434C1.26997 168.266 0 165.978 0 164.57C0 162.74 0.670262 161.156 2.01079 159.819C3.35131 158.481 4.93878 157.812 6.77318 157.812C7.90204 157.812 9.10146 156.827 10.3714 154.856C11.6414 152.885 13.0878 150.421 14.7105 147.465C16.3332 144.508 18.2029 141.516 20.3195 138.489C22.4362 135.462 25.2583 132.647 28.786 130.042C32.3137 127.438 36.2647 125.642 40.6391 124.657V103.75C43.8845 103.75 47.6945 106.249 52.0688 111.247C56.4431 116.245 59.2653 121.419 60.5353 126.769C67.3085 129.585 72.4589 134.477 75.9866 141.446C79.5143 148.415 81.2781 156.123 81.2781 164.57C81.2781 168.653 82.1601 172.525 83.9239 176.185C85.6878 179.846 88.1924 183.119 91.4379 186.005C94.6834 188.891 97.3292 191.074 99.3752 192.552C101.421 194.03 103.997 195.684 107.101 197.515C107.665 197.937 108.089 198.219 108.371 198.359C116.555 203.005 123.328 207.511 128.69 211.875C138.427 219.9 146.505 229.966 152.926 242.074C159.346 254.182 162.556 264.389 162.556 272.695C162.556 273.258 162.627 273.892 162.768 274.596C162.909 275.3 163.544 276.285 164.673 277.552C165.802 278.82 167.354 279.453 169.329 279.453C171.305 279.453 172.928 278.362 174.198 276.18C175.468 273.998 176.103 270.583 176.103 265.938C176.103 261.01 175.185 256.082 173.351 251.155C171.517 246.227 169.259 241.546 166.578 237.111C163.897 232.676 161.216 228.066 158.535 223.279C155.854 218.492 153.596 212.755 151.762 206.068C149.927 199.38 149.01 192.306 149.01 184.844C149.01 178.086 151.832 171.891 157.476 166.26C163.121 160.628 169.329 157.812 176.103 157.812C179.913 157.812 183.123 159.115 185.733 161.719C188.344 164.324 189.649 167.527 189.649 171.328C189.649 173.581 189.226 175.587 188.379 177.347C187.532 179.107 186.439 180.726 185.098 182.204C183.758 183.682 183.017 184.562 182.876 184.844C178.36 192.306 176.103 201.316 176.103 211.875Z" fill="#E5EDF9"/>
</svg>
