<svg width="105" height="16" viewBox="0 0 105 16" fill="none" xmlns="http://www.w3.org/2000/svg">
<path d="M11.2794 13H8.97594V2.46851H5.61844C5.53911 4.00984 5.42578 5.34434 5.27844 6.47201C5.13678 7.59401 4.96394 8.55168 4.75994 9.34501C4.56161 10.1327 4.33211 10.773 4.07144 11.266C3.81644 11.759 3.53594 12.1443 3.22994 12.422C2.92394 12.694 2.59528 12.881 2.24394 12.983C1.89261 13.0793 1.52428 13.1275 1.13894 13.1275C0.730942 13.1275 0.433442 13.0907 0.246442 13.017C0.0594424 12.9433 -0.0340576 12.8357 -0.0340576 12.694V11.266H0.620442C0.767776 11.266 0.915109 11.249 1.06244 11.215C1.21544 11.181 1.36561 11.1102 1.51294 11.0025C1.66594 10.8892 1.81328 10.7277 1.95494 10.518C2.10228 10.3083 2.24111 10.0278 2.37144 9.67651C2.50744 9.31951 2.63211 8.88318 2.74544 8.36751C2.86444 7.85184 2.96928 7.23134 3.05994 6.50601C3.15628 5.78068 3.23844 4.94201 3.30644 3.99001C3.38011 3.03234 3.43394 1.93868 3.46794 0.709011H11.2794V13Z" fill="#EA221D"/>
<path d="M18.0785 9.27701C17.4722 9.30534 16.9622 9.35918 16.5485 9.43851C16.1348 9.51218 15.8033 9.60851 15.554 9.72751C15.3047 9.84651 15.1262 9.98534 15.0185 10.144C14.9108 10.3027 14.857 10.4755 14.857 10.6625C14.857 11.0308 14.9647 11.2943 15.18 11.453C15.401 11.6117 15.6872 11.691 16.0385 11.691C16.4692 11.691 16.8403 11.6145 17.152 11.4615C17.4693 11.3028 17.7782 11.0648 18.0785 10.7475V9.27701ZM13.2675 5.49451C14.2705 4.57651 15.4775 4.11751 16.8885 4.11751C17.3985 4.11751 17.8547 4.20251 18.257 4.37251C18.6593 4.53684 18.9993 4.76918 19.277 5.06951C19.5547 5.36418 19.7643 5.71834 19.906 6.13201C20.0533 6.54568 20.127 6.99901 20.127 7.49201V13H19.175C18.9767 13 18.8237 12.9717 18.716 12.915C18.6083 12.8527 18.5233 12.7308 18.461 12.5495L18.274 11.9205C18.053 12.1188 17.8377 12.2945 17.628 12.4475C17.4183 12.5948 17.2002 12.7195 16.9735 12.8215C16.7468 12.9235 16.5032 13 16.2425 13.051C15.9875 13.1077 15.7042 13.136 15.3925 13.136C15.0242 13.136 14.6842 13.0878 14.3725 12.9915C14.0608 12.8895 13.7917 12.7393 13.565 12.541C13.3383 12.3427 13.1627 12.0962 13.038 11.8015C12.9133 11.5068 12.851 11.164 12.851 10.773C12.851 10.552 12.8878 10.3338 12.9615 10.1185C13.0352 9.89751 13.1542 9.68785 13.3185 9.48951C13.4885 9.29118 13.7067 9.10418 13.973 8.92851C14.2393 8.75284 14.5652 8.59984 14.9505 8.46951C15.3415 8.33918 15.7948 8.23434 16.3105 8.15501C16.8262 8.07001 17.4155 8.01901 18.0785 8.00201V7.49201C18.0785 6.90834 17.9538 6.47768 17.7045 6.20001C17.4552 5.91668 17.0953 5.77501 16.625 5.77501C16.285 5.77501 16.0017 5.81468 15.775 5.89401C15.554 5.97334 15.3585 6.06401 15.1885 6.16601C15.0185 6.26234 14.8627 6.35018 14.721 6.42951C14.585 6.50884 14.432 6.54851 14.262 6.54851C14.1147 6.54851 13.99 6.51168 13.888 6.43801C13.786 6.35868 13.7038 6.26801 13.6415 6.16601L13.2675 5.49451Z" fill="#EA221D"/>
<path d="M29.7033 13H27.6038V5.83451H24.2038V13H22.1043V4.27901H29.7033V13Z" fill="#EA221D"/>
<path d="M36.9935 4.83151C37.0955 4.66718 37.2344 4.53401 37.41 4.43201C37.5857 4.33001 37.7727 4.27901 37.971 4.27901H39.62L37.5885 7.51751C37.4469 7.74418 37.3024 7.92834 37.155 8.07001C37.0077 8.20601 36.8292 8.31368 36.6195 8.39301C36.9029 8.47801 37.1352 8.60551 37.3165 8.77551C37.4979 8.93985 37.6622 9.14951 37.8095 9.40451L39.8495 13H38.396C38.0277 13 37.7415 12.9377 37.5375 12.813C37.3335 12.6883 37.1607 12.5098 37.019 12.2775L35.7355 9.86351C35.6222 9.65384 35.4749 9.49801 35.2935 9.39601C35.1179 9.29401 34.911 9.24301 34.673 9.24301H33.8825V13H31.783V4.27901H33.8825V7.87451H34.5625C34.8005 7.87451 34.9904 7.83201 35.132 7.74701C35.2794 7.65634 35.404 7.52034 35.506 7.33901L36.9935 4.83151Z" fill="#EA221D"/>
<path d="M48.8505 4.27901V13H46.751V7.90851C46.751 7.77818 46.7567 7.63651 46.768 7.48351C46.785 7.32484 46.8048 7.16618 46.8275 7.00751C46.7142 7.26818 46.5895 7.49768 46.4535 7.69601C46.4422 7.70734 46.3855 7.78668 46.2835 7.93401C46.1815 8.07568 46.0483 8.25984 45.884 8.48651C45.7253 8.71318 45.544 8.97101 45.34 9.26001C45.136 9.54335 44.9292 9.83235 44.7195 10.127C44.2265 10.824 43.6683 11.6117 43.045 12.49C42.9657 12.609 42.8608 12.7252 42.7305 12.8385C42.6058 12.9518 42.4613 13.0085 42.297 13.0085H41.0135V4.28751H43.113V9.37901C43.113 9.50934 43.1045 9.65384 43.0875 9.81251C43.0762 9.96551 43.0592 10.1213 43.0365 10.28C43.1612 10.0023 43.2858 9.77284 43.4105 9.59151C43.4162 9.58018 43.47 9.50368 43.572 9.36201C43.674 9.22034 43.8043 9.03618 43.963 8.80951C44.1273 8.58284 44.3115 8.32784 44.5155 8.04451C44.7195 7.75551 44.9263 7.46084 45.136 7.16051C45.629 6.46351 46.19 5.67584 46.819 4.79751C46.8983 4.67284 47.0032 4.55668 47.1335 4.44901C47.2638 4.33568 47.4112 4.27901 47.5755 4.27901H48.8505Z" fill="#EA221D"/>
<path d="M63.1589 11.2405V2.46851H59.8014C59.7334 3.67551 59.6399 4.74651 59.5209 5.68151C59.4076 6.61651 59.2744 7.43818 59.1214 8.14651C58.9684 8.85485 58.7984 9.46118 58.6114 9.96551C58.4244 10.4698 58.2233 10.8948 58.0079 11.2405H63.1589ZM67.3664 11.2405V15.2695C67.3664 15.4678 67.2984 15.6265 67.1624 15.7455C67.0321 15.8645 66.8593 15.924 66.6439 15.924H65.2669V13H56.2399V15.2695C56.2399 15.4678 56.1719 15.6265 56.0359 15.7455C55.9056 15.8645 55.7328 15.924 55.5174 15.924H54.1404V11.2405H55.4834C55.6421 11.1555 55.7979 11.0195 55.9509 10.8325C56.1096 10.6455 56.2626 10.382 56.4099 10.042C56.5573 9.70201 56.6961 9.27135 56.8264 8.75001C56.9624 8.22868 57.0843 7.59401 57.1919 6.84601C57.2996 6.09234 57.3903 5.21118 57.4639 4.20251C57.5433 3.19384 57.6028 2.02934 57.6424 0.709011H65.4539V11.2405H67.3664Z" fill="#EA221D"/>
<path d="M72.2153 4.14301C72.8613 4.14301 73.4478 4.24784 73.9748 4.45751C74.5074 4.66718 74.9608 4.96468 75.3348 5.35001C75.7144 5.73534 76.0063 6.20568 76.2103 6.76101C76.4143 7.31634 76.5163 7.93684 76.5163 8.62251C76.5163 9.31384 76.4143 9.93718 76.2103 10.4925C76.0063 11.0478 75.7144 11.521 75.3348 11.912C74.9608 12.303 74.5074 12.6033 73.9748 12.813C73.4478 13.0227 72.8613 13.1275 72.2153 13.1275C71.5636 13.1275 70.9714 13.0227 70.4388 12.813C69.9061 12.6033 69.4499 12.303 69.0703 11.912C68.6963 11.521 68.4044 11.0478 68.1948 10.4925C67.9908 9.93718 67.8888 9.31384 67.8888 8.62251C67.8888 7.93684 67.9908 7.31634 68.1948 6.76101C68.4044 6.20568 68.6963 5.73534 69.0703 5.35001C69.4499 4.96468 69.9061 4.66718 70.4388 4.45751C70.9714 4.24784 71.5636 4.14301 72.2153 4.14301ZM72.2153 11.5125C72.9406 11.5125 73.4761 11.2688 73.8218 10.7815C74.1731 10.2942 74.3488 9.58018 74.3488 8.63951C74.3488 7.69884 74.1731 6.98201 73.8218 6.48901C73.4761 5.99601 72.9406 5.74951 72.2153 5.74951C71.4786 5.74951 70.9318 5.99884 70.5748 6.49751C70.2234 6.99051 70.0478 7.70451 70.0478 8.63951C70.0478 9.57451 70.2234 10.2885 70.5748 10.7815C70.9318 11.2688 71.4786 11.5125 72.2153 11.5125Z" fill="#EA221D"/>
<path d="M82.215 11.5975C82.9403 11.5975 83.4815 11.3652 83.8385 10.9005C84.1955 10.4358 84.374 9.75584 84.374 8.86051C84.374 7.97084 84.1983 7.29368 83.847 6.82901C83.5013 6.36434 82.9715 6.13201 82.2575 6.13201C81.5435 6.13201 80.9995 6.35301 80.6255 6.79501C80.2515 7.23134 80.0645 7.88584 80.0645 8.75851C80.0645 9.68218 80.2402 10.3877 80.5915 10.875C80.9485 11.3567 81.4897 11.5975 82.215 11.5975ZM82.827 2.69801C82.2943 2.73201 81.8382 2.83684 81.4585 3.01251C81.0845 3.18251 80.7728 3.41484 80.5235 3.70951C80.2798 3.99851 80.0928 4.34701 79.9625 4.75501C79.8378 5.15734 79.7642 5.60501 79.7415 6.09801C79.8832 5.87701 80.056 5.67585 80.26 5.49451C80.4697 5.30751 80.702 5.14884 80.957 5.01851C81.2177 4.88251 81.4982 4.77768 81.7985 4.70401C82.1045 4.63034 82.4303 4.59351 82.776 4.59351C83.354 4.59351 83.8753 4.69551 84.34 4.89951C84.8047 5.10351 85.1985 5.39251 85.5215 5.76651C85.8502 6.14051 86.0995 6.59101 86.2695 7.11801C86.4452 7.63934 86.533 8.21734 86.533 8.85201C86.533 9.50934 86.4282 10.1015 86.2185 10.6285C86.0145 11.1555 85.7227 11.606 85.343 11.98C84.969 12.3483 84.5157 12.6317 83.983 12.83C83.4503 13.0283 82.861 13.1275 82.215 13.1275C81.586 13.1275 81.0052 13.0255 80.4725 12.8215C79.9455 12.6175 79.4893 12.286 79.104 11.827C78.7187 11.368 78.4183 10.773 78.203 10.042C77.9877 9.30534 77.88 8.40718 77.88 7.34751C77.88 6.45784 77.9622 5.63051 78.1265 4.86551C78.2908 4.10051 78.56 3.43184 78.934 2.85951C79.308 2.28151 79.7982 1.81684 80.4045 1.46551C81.0108 1.11418 81.7588 0.904511 82.6485 0.836511L85.751 0.598511L85.8615 1.68651C85.8842 1.91884 85.8502 2.11718 85.7595 2.28151C85.6688 2.44018 85.5073 2.52518 85.275 2.53651L82.827 2.69801Z" fill="#EA221D"/>
<path d="M90.2614 10.739C90.4994 11.028 90.7573 11.232 91.0349 11.351C91.3183 11.47 91.6243 11.5295 91.9529 11.5295C92.2703 11.5295 92.5564 11.47 92.8114 11.351C93.0664 11.232 93.2818 11.0507 93.4574 10.807C93.6388 10.5633 93.7776 10.2573 93.8739 9.88901C93.9703 9.51501 94.0184 9.07584 94.0184 8.57151C94.0184 8.06151 93.9759 7.63085 93.8909 7.27951C93.8116 6.92251 93.6954 6.63351 93.5424 6.41251C93.3894 6.19151 93.2024 6.03001 92.9814 5.92801C92.7661 5.82601 92.5196 5.77501 92.2419 5.77501C91.8056 5.77501 91.4344 5.86851 91.1284 6.05551C90.8224 6.23685 90.5334 6.49468 90.2614 6.82901V10.739ZM90.1509 5.46901C90.5079 5.06668 90.9131 4.74084 91.3664 4.49151C91.8198 4.24218 92.3524 4.11751 92.9644 4.11751C93.4404 4.11751 93.8739 4.21668 94.2649 4.41501C94.6616 4.61334 95.0016 4.90234 95.2849 5.28201C95.5739 5.65601 95.7949 6.12068 95.9479 6.67601C96.1066 7.22568 96.1859 7.85751 96.1859 8.57151C96.1859 9.22318 96.0981 9.82668 95.9224 10.382C95.7468 10.9373 95.4946 11.419 95.1659 11.827C94.8429 12.235 94.4491 12.5552 93.9844 12.7875C93.5254 13.0142 93.0098 13.1275 92.4374 13.1275C91.9501 13.1275 91.5336 13.0538 91.1879 12.9065C90.8423 12.7535 90.5334 12.5438 90.2614 12.2775V15.8475H88.1619V4.27901H89.4454C89.7174 4.27901 89.8959 4.40651 89.9809 4.66151L90.1509 5.46901Z" fill="#EA221D"/>
<path d="M102.414 9.27701C101.808 9.30534 101.298 9.35918 100.884 9.43851C100.471 9.51218 100.139 9.60851 99.8899 9.72751C99.6406 9.84651 99.4621 9.98534 99.3544 10.144C99.2468 10.3027 99.1929 10.4755 99.1929 10.6625C99.1929 11.0308 99.3006 11.2943 99.5159 11.453C99.7369 11.6117 100.023 11.691 100.374 11.691C100.805 11.691 101.176 11.6145 101.488 11.4615C101.805 11.3028 102.114 11.0648 102.414 10.7475V9.27701ZM97.6034 5.49451C98.6064 4.57651 99.8134 4.11751 101.224 4.11751C101.734 4.11751 102.191 4.20251 102.593 4.37251C102.995 4.53684 103.335 4.76918 103.613 5.06951C103.891 5.36418 104.1 5.71834 104.242 6.13201C104.389 6.54568 104.463 6.99901 104.463 7.49201V13H103.511C103.313 13 103.16 12.9717 103.052 12.915C102.944 12.8527 102.859 12.7308 102.797 12.5495L102.61 11.9205C102.389 12.1188 102.174 12.2945 101.964 12.4475C101.754 12.5948 101.536 12.7195 101.309 12.8215C101.083 12.9235 100.839 13 100.578 13.051C100.323 13.1077 100.04 13.136 99.7284 13.136C99.3601 13.136 99.0201 13.0878 98.7085 12.9915C98.3968 12.8895 98.1276 12.7393 97.9009 12.541C97.6743 12.3427 97.4986 12.0962 97.3739 11.8015C97.2493 11.5068 97.1869 11.164 97.1869 10.773C97.1869 10.552 97.2238 10.3338 97.2974 10.1185C97.3711 9.89751 97.4901 9.68785 97.6544 9.48951C97.8244 9.29118 98.0426 9.10418 98.3089 8.92851C98.5753 8.75284 98.9011 8.59984 99.2864 8.46951C99.6774 8.33918 100.131 8.23434 100.646 8.15501C101.162 8.07001 101.751 8.01901 102.414 8.00201V7.49201C102.414 6.90834 102.29 6.47768 102.04 6.20001C101.791 5.91668 101.431 5.77501 100.961 5.77501C100.621 5.77501 100.338 5.81468 100.111 5.89401C99.8899 5.97334 99.6944 6.06401 99.5244 6.16601C99.3544 6.26234 99.1986 6.35018 99.0569 6.42951C98.9209 6.50884 98.7679 6.54851 98.5979 6.54851C98.4506 6.54851 98.3259 6.51168 98.2239 6.43801C98.1219 6.35868 98.0398 6.26801 97.9774 6.16601L97.6034 5.49451Z" fill="#EA221D"/>
</svg>
