<svg width="110" height="136" viewBox="0 0 110 136" fill="none" xmlns="http://www.w3.org/2000/svg">
<g clip-path="url(#clip0)">
<path d="M11.2794 133H8.97594V122.468H5.61844C5.53911 124.01 5.42578 125.344 5.27844 126.472C5.13678 127.594 4.96394 128.552 4.75994 129.345C4.56161 130.133 4.33211 130.773 4.07144 131.266C3.81644 131.759 3.53594 132.144 3.22994 132.422C2.92394 132.694 2.59528 132.881 2.24394 132.983C1.89261 133.079 1.52428 133.127 1.13894 133.127C0.730942 133.127 0.433442 133.091 0.246442 133.017C0.0594424 132.943 -0.0340576 132.836 -0.0340576 132.694V131.266H0.620442C0.767776 131.266 0.915109 131.249 1.06244 131.215C1.21544 131.181 1.36561 131.11 1.51294 131.002C1.66594 130.889 1.81328 130.728 1.95494 130.518C2.10228 130.308 2.24111 130.028 2.37144 129.676C2.50744 129.319 2.63211 128.883 2.74544 128.367C2.86444 127.852 2.96928 127.231 3.05994 126.506C3.15628 125.781 3.23844 124.942 3.30644 123.99C3.38011 123.032 3.43394 121.939 3.46794 120.709H11.2794V133Z" fill="#EA221D"/>
<path d="M18.0785 129.277C17.4722 129.305 16.9622 129.359 16.5485 129.438C16.1348 129.512 15.8033 129.608 15.554 129.727C15.3047 129.846 15.1262 129.985 15.0185 130.144C14.9108 130.303 14.857 130.475 14.857 130.662C14.857 131.031 14.9647 131.294 15.18 131.453C15.401 131.612 15.6872 131.691 16.0385 131.691C16.4692 131.691 16.8403 131.614 17.152 131.461C17.4693 131.303 17.7782 131.065 18.0785 130.747V129.277ZM13.2675 125.494C14.2705 124.576 15.4775 124.117 16.8885 124.117C17.3985 124.117 17.8547 124.202 18.257 124.372C18.6593 124.537 18.9993 124.769 19.277 125.069C19.5547 125.364 19.7643 125.718 19.906 126.132C20.0533 126.546 20.127 126.999 20.127 127.492V133H19.175C18.9767 133 18.8237 132.972 18.716 132.915C18.6083 132.853 18.5233 132.731 18.461 132.549L18.274 131.92C18.053 132.119 17.8377 132.294 17.628 132.447C17.4183 132.595 17.2002 132.719 16.9735 132.821C16.7468 132.923 16.5032 133 16.2425 133.051C15.9875 133.108 15.7042 133.136 15.3925 133.136C15.0242 133.136 14.6842 133.088 14.3725 132.991C14.0608 132.889 13.7917 132.739 13.565 132.541C13.3383 132.343 13.1627 132.096 13.038 131.801C12.9133 131.507 12.851 131.164 12.851 130.773C12.851 130.552 12.8878 130.334 12.9615 130.118C13.0352 129.897 13.1542 129.688 13.3185 129.489C13.4885 129.291 13.7067 129.104 13.973 128.928C14.2393 128.753 14.5652 128.6 14.9505 128.469C15.3415 128.339 15.7948 128.234 16.3105 128.155C16.8262 128.07 17.4155 128.019 18.0785 128.002V127.492C18.0785 126.908 17.9538 126.478 17.7045 126.2C17.4552 125.917 17.0953 125.775 16.625 125.775C16.285 125.775 16.0017 125.815 15.775 125.894C15.554 125.973 15.3585 126.064 15.1885 126.166C15.0185 126.262 14.8627 126.35 14.721 126.429C14.585 126.509 14.432 126.548 14.262 126.548C14.1147 126.548 13.99 126.512 13.888 126.438C13.786 126.359 13.7038 126.268 13.6415 126.166L13.2675 125.494Z" fill="#EA221D"/>
<path d="M29.7033 133H27.6038V125.834H24.2038V133H22.1043V124.279H29.7033V133Z" fill="#EA221D"/>
<path d="M36.9935 124.831C37.0955 124.667 37.2344 124.534 37.41 124.432C37.5857 124.33 37.7727 124.279 37.971 124.279H39.62L37.5885 127.517C37.4469 127.744 37.3024 127.928 37.155 128.07C37.0077 128.206 36.8292 128.314 36.6195 128.393C36.9029 128.478 37.1352 128.605 37.3165 128.775C37.4979 128.94 37.6622 129.149 37.8095 129.404L39.8495 133H38.396C38.0277 133 37.7415 132.938 37.5375 132.813C37.3335 132.688 37.1607 132.51 37.019 132.277L35.7355 129.863C35.6222 129.654 35.4749 129.498 35.2935 129.396C35.1179 129.294 34.911 129.243 34.673 129.243H33.8825V133H31.783V124.279H33.8825V127.874H34.5625C34.8005 127.874 34.9904 127.832 35.132 127.747C35.2794 127.656 35.404 127.52 35.506 127.339L36.9935 124.831Z" fill="#EA221D"/>
<path d="M48.8505 124.279V133H46.751V127.908C46.751 127.778 46.7567 127.636 46.768 127.483C46.785 127.325 46.8048 127.166 46.8275 127.007C46.7142 127.268 46.5895 127.498 46.4535 127.696C46.4422 127.707 46.3855 127.787 46.2835 127.934C46.1815 128.076 46.0483 128.26 45.884 128.486C45.7253 128.713 45.544 128.971 45.34 129.26C45.136 129.543 44.9292 129.832 44.7195 130.127C44.2265 130.824 43.6683 131.612 43.045 132.49C42.9657 132.609 42.8608 132.725 42.7305 132.838C42.6058 132.952 42.4613 133.008 42.297 133.008H41.0135V124.287H43.113V129.379C43.113 129.509 43.1045 129.654 43.0875 129.812C43.0762 129.965 43.0592 130.121 43.0365 130.28C43.1612 130.002 43.2858 129.773 43.4105 129.591C43.4162 129.58 43.47 129.504 43.572 129.362C43.674 129.22 43.8043 129.036 43.963 128.809C44.1273 128.583 44.3115 128.328 44.5155 128.044C44.7195 127.755 44.9263 127.461 45.136 127.16C45.629 126.463 46.19 125.676 46.819 124.797C46.8983 124.673 47.0032 124.557 47.1335 124.449C47.2638 124.336 47.4112 124.279 47.5755 124.279H48.8505Z" fill="#EA221D"/>
<path d="M63.1589 131.24V122.468H59.8014C59.7334 123.675 59.6399 124.746 59.5209 125.681C59.4076 126.616 59.2744 127.438 59.1214 128.146C58.9684 128.855 58.7984 129.461 58.6114 129.965C58.4244 130.47 58.2233 130.895 58.0079 131.24H63.1589ZM67.3664 131.24V135.269C67.3664 135.468 67.2984 135.626 67.1624 135.745C67.0321 135.864 66.8593 135.924 66.6439 135.924H65.2669V133H56.2399V135.269C56.2399 135.468 56.1719 135.626 56.0359 135.745C55.9056 135.864 55.7328 135.924 55.5174 135.924H54.1404V131.24H55.4834C55.6421 131.155 55.7979 131.019 55.9509 130.832C56.1096 130.645 56.2626 130.382 56.4099 130.042C56.5573 129.702 56.6961 129.271 56.8264 128.75C56.9624 128.229 57.0843 127.594 57.1919 126.846C57.2996 126.092 57.3903 125.211 57.4639 124.202C57.5433 123.194 57.6028 122.029 57.6424 120.709H65.4539V131.24H67.3664Z" fill="#EA221D"/>
<path d="M72.2153 124.143C72.8613 124.143 73.4478 124.248 73.9748 124.457C74.5074 124.667 74.9608 124.965 75.3348 125.35C75.7144 125.735 76.0063 126.206 76.2103 126.761C76.4143 127.316 76.5163 127.937 76.5163 128.622C76.5163 129.314 76.4143 129.937 76.2103 130.492C76.0063 131.048 75.7144 131.521 75.3348 131.912C74.9608 132.303 74.5074 132.603 73.9748 132.813C73.4478 133.023 72.8613 133.127 72.2153 133.127C71.5636 133.127 70.9714 133.023 70.4388 132.813C69.9061 132.603 69.4499 132.303 69.0703 131.912C68.6963 131.521 68.4044 131.048 68.1948 130.492C67.9908 129.937 67.8888 129.314 67.8888 128.622C67.8888 127.937 67.9908 127.316 68.1948 126.761C68.4044 126.206 68.6963 125.735 69.0703 125.35C69.4499 124.965 69.9061 124.667 70.4388 124.457C70.9714 124.248 71.5636 124.143 72.2153 124.143ZM72.2153 131.512C72.9406 131.512 73.4761 131.269 73.8218 130.781C74.1731 130.294 74.3488 129.58 74.3488 128.639C74.3488 127.699 74.1731 126.982 73.8218 126.489C73.4761 125.996 72.9406 125.749 72.2153 125.749C71.4786 125.749 70.9318 125.999 70.5748 126.497C70.2234 126.99 70.0478 127.704 70.0478 128.639C70.0478 129.574 70.2234 130.288 70.5748 130.781C70.9318 131.269 71.4786 131.512 72.2153 131.512Z" fill="#EA221D"/>
<path d="M82.215 131.597C82.9403 131.597 83.4815 131.365 83.8385 130.9C84.1955 130.436 84.374 129.756 84.374 128.86C84.374 127.971 84.1983 127.294 83.847 126.829C83.5013 126.364 82.9715 126.132 82.2575 126.132C81.5435 126.132 80.9995 126.353 80.6255 126.795C80.2515 127.231 80.0645 127.886 80.0645 128.758C80.0645 129.682 80.2402 130.388 80.5915 130.875C80.9485 131.357 81.4897 131.597 82.215 131.597ZM82.827 122.698C82.2943 122.732 81.8382 122.837 81.4585 123.012C81.0845 123.182 80.7728 123.415 80.5235 123.709C80.2798 123.998 80.0928 124.347 79.9625 124.755C79.8378 125.157 79.7642 125.605 79.7415 126.098C79.8832 125.877 80.056 125.676 80.26 125.494C80.4697 125.307 80.702 125.149 80.957 125.018C81.2177 124.882 81.4982 124.778 81.7985 124.704C82.1045 124.63 82.4303 124.593 82.776 124.593C83.354 124.593 83.8753 124.695 84.34 124.899C84.8047 125.103 85.1985 125.392 85.5215 125.766C85.8502 126.14 86.0995 126.591 86.2695 127.118C86.4452 127.639 86.533 128.217 86.533 128.852C86.533 129.509 86.4282 130.101 86.2185 130.628C86.0145 131.155 85.7227 131.606 85.343 131.98C84.969 132.348 84.5157 132.632 83.983 132.83C83.4503 133.028 82.861 133.127 82.215 133.127C81.586 133.127 81.0052 133.025 80.4725 132.821C79.9455 132.617 79.4893 132.286 79.104 131.827C78.7187 131.368 78.4183 130.773 78.203 130.042C77.9877 129.305 77.88 128.407 77.88 127.347C77.88 126.458 77.9622 125.63 78.1265 124.865C78.2908 124.1 78.56 123.432 78.934 122.859C79.308 122.281 79.7982 121.817 80.4045 121.465C81.0108 121.114 81.7588 120.904 82.6485 120.836L85.751 120.598L85.8615 121.686C85.8842 121.919 85.8502 122.117 85.7595 122.281C85.6688 122.44 85.5073 122.525 85.275 122.536L82.827 122.698Z" fill="#EA221D"/>
<path d="M90.2614 130.739C90.4994 131.028 90.7573 131.232 91.0349 131.351C91.3183 131.47 91.6243 131.529 91.9529 131.529C92.2703 131.529 92.5564 131.47 92.8114 131.351C93.0664 131.232 93.2818 131.051 93.4574 130.807C93.6388 130.563 93.7776 130.257 93.8739 129.889C93.9703 129.515 94.0184 129.076 94.0184 128.571C94.0184 128.061 93.9759 127.631 93.8909 127.279C93.8116 126.922 93.6954 126.633 93.5424 126.412C93.3894 126.191 93.2024 126.03 92.9814 125.928C92.7661 125.826 92.5196 125.775 92.2419 125.775C91.8056 125.775 91.4344 125.868 91.1284 126.055C90.8224 126.237 90.5334 126.495 90.2614 126.829V130.739ZM90.1509 125.469C90.5079 125.067 90.9131 124.741 91.3664 124.491C91.8198 124.242 92.3524 124.117 92.9644 124.117C93.4404 124.117 93.8739 124.217 94.2649 124.415C94.6616 124.613 95.0016 124.902 95.2849 125.282C95.5739 125.656 95.7949 126.121 95.9479 126.676C96.1066 127.226 96.1859 127.857 96.1859 128.571C96.1859 129.223 96.0981 129.827 95.9224 130.382C95.7468 130.937 95.4946 131.419 95.1659 131.827C94.8429 132.235 94.4491 132.555 93.9844 132.787C93.5254 133.014 93.0098 133.127 92.4374 133.127C91.9501 133.127 91.5336 133.054 91.1879 132.906C90.8423 132.753 90.5334 132.544 90.2614 132.277V135.847H88.1619V124.279H89.4454C89.7174 124.279 89.8959 124.406 89.9809 124.661L90.1509 125.469Z" fill="#EA221D"/>
<path d="M102.414 129.277C101.808 129.305 101.298 129.359 100.884 129.438C100.471 129.512 100.139 129.608 99.8899 129.727C99.6406 129.846 99.4621 129.985 99.3544 130.144C99.2468 130.303 99.1929 130.475 99.1929 130.662C99.1929 131.031 99.3006 131.294 99.5159 131.453C99.7369 131.612 100.023 131.691 100.374 131.691C100.805 131.691 101.176 131.614 101.488 131.461C101.805 131.303 102.114 131.065 102.414 130.747V129.277ZM97.6034 125.494C98.6064 124.576 99.8134 124.117 101.224 124.117C101.734 124.117 102.191 124.202 102.593 124.372C102.995 124.537 103.335 124.769 103.613 125.069C103.891 125.364 104.1 125.718 104.242 126.132C104.389 126.546 104.463 126.999 104.463 127.492V133H103.511C103.313 133 103.16 132.972 103.052 132.915C102.944 132.853 102.859 132.731 102.797 132.549L102.61 131.92C102.389 132.119 102.174 132.294 101.964 132.447C101.754 132.595 101.536 132.719 101.309 132.821C101.083 132.923 100.839 133 100.578 133.051C100.323 133.108 100.04 133.136 99.7284 133.136C99.3601 133.136 99.0201 133.088 98.7085 132.991C98.3968 132.889 98.1276 132.739 97.9009 132.541C97.6743 132.343 97.4986 132.096 97.3739 131.801C97.2493 131.507 97.1869 131.164 97.1869 130.773C97.1869 130.552 97.2238 130.334 97.2974 130.118C97.3711 129.897 97.4901 129.688 97.6544 129.489C97.8244 129.291 98.0426 129.104 98.3089 128.928C98.5753 128.753 98.9011 128.6 99.2864 128.469C99.6774 128.339 100.131 128.234 100.646 128.155C101.162 128.07 101.751 128.019 102.414 128.002V127.492C102.414 126.908 102.29 126.478 102.04 126.2C101.791 125.917 101.431 125.775 100.961 125.775C100.621 125.775 100.338 125.815 100.111 125.894C99.8899 125.973 99.6944 126.064 99.5244 126.166C99.3544 126.262 99.1986 126.35 99.0569 126.429C98.9209 126.509 98.7679 126.548 98.5979 126.548C98.4506 126.548 98.3259 126.512 98.2239 126.438C98.1219 126.359 98.0398 126.268 97.9774 126.166L97.6034 125.494Z" fill="#EA221D"/>
<path d="M38.9583 0C34.0542 0 29.7825 2.79102 27.0692 6.60113C24.3558 10.4112 22.9167 15.3322 22.9167 20.6572C22.9167 25.9822 24.3558 30.9078 27.0692 34.7179C29.7825 38.528 34.0542 41.3144 38.9583 41.3144C43.8625 41.3144 48.1342 38.5234 50.8475 34.7133C53.5608 30.9032 55 25.9822 55 20.6572C55 15.3322 53.5608 10.4066 50.8475 6.59654C48.1342 2.78643 43.8625 0 38.9583 0ZM55 20.6572C55 25.9822 56.4392 30.9078 59.1525 34.7179C61.8658 38.528 66.1421 41.3144 71.0417 41.3144C75.9458 41.3144 80.2175 38.5234 82.9308 34.7133C85.6442 30.9032 87.0833 25.9822 87.0833 20.6572C87.0833 15.3322 85.6442 10.4066 82.9308 6.59654C80.2175 2.78643 75.9458 0 71.0417 0C66.1375 0 61.8658 2.79102 59.1525 6.60113C56.4392 10.4112 55 15.3322 55 20.6572ZM38.9583 9.18098C40.3883 9.18098 41.965 9.8971 43.4042 11.9077C44.825 13.9138 45.8333 17.1088 45.8333 20.6572C45.8333 24.2057 44.825 27.4052 43.4042 29.4067C41.965 31.4173 40.3883 32.1334 38.9583 32.1334C37.5283 32.1334 35.9517 31.4173 34.5125 29.4067C33.0917 27.4006 32.0833 24.2057 32.0833 20.6572C32.0833 17.1088 33.0917 13.9092 34.5125 11.9077C35.9517 9.8971 37.5283 9.18098 38.9583 9.18098ZM71.0417 9.18098C72.4717 9.18098 74.0483 9.8971 75.4875 11.9077C76.9083 13.9138 77.9167 17.1088 77.9167 20.6572C77.9167 24.2057 76.9083 27.4052 75.4875 29.4067C74.0483 31.4173 72.4717 32.1334 71.0417 32.1334C69.6117 32.1334 68.035 31.4173 66.5958 29.4067C65.175 27.4006 64.1667 24.2057 64.1667 20.6572C64.1667 17.1088 65.175 13.9092 66.5958 11.9077C68.035 9.8971 69.6117 9.18098 71.0417 9.18098ZM16.0417 32.1334C11.1375 32.1334 6.86583 34.9245 4.1525 38.7346C1.43917 42.5447 0 47.4657 0 52.7907C0 58.1156 1.43917 63.0412 4.1525 66.8513C6.86583 70.6614 11.1375 73.4479 16.0417 73.4479C20.9458 73.4479 25.2175 70.6569 27.9308 66.8467C30.6442 63.0366 32.0833 58.1156 32.0833 52.7907C32.0833 47.4657 30.6442 42.5401 27.9308 38.73C25.2175 34.9199 20.9458 32.1334 16.0417 32.1334ZM93.9583 32.1334C89.0542 32.1334 84.7825 34.9245 82.0692 38.7346C79.3558 42.5447 77.9167 47.4657 77.9167 52.7907C77.9167 58.1156 79.3558 63.0412 82.0692 66.8513C84.7825 70.6614 89.0542 73.4479 93.9583 73.4479C98.8625 73.4479 103.134 70.6569 105.848 66.8467C108.561 63.0366 110 58.1156 110 52.7907C110 47.4657 108.561 42.5401 105.848 38.73C103.134 34.9199 98.8625 32.1334 93.9583 32.1334ZM16.0417 41.3144C17.4717 41.3144 19.0483 42.0305 20.4875 44.0412C21.9083 46.0472 22.9167 49.2422 22.9167 52.7907C22.9167 56.3391 21.9083 59.5387 20.4875 61.5401C19.0483 63.5508 17.4717 64.2669 16.0417 64.2669C14.6117 64.2669 13.035 63.5508 11.5958 61.5401C10.175 59.5387 9.16667 56.3391 9.16667 52.7907C9.16667 49.2422 10.175 46.0426 11.5958 44.0412C13.035 42.0305 14.6117 41.3144 16.0417 41.3144ZM93.9583 41.3144C95.3883 41.3144 96.965 42.0305 98.4042 44.0412C99.825 46.0472 100.833 49.2422 100.833 52.7907C100.833 56.3391 99.825 59.5387 98.4042 61.5401C96.965 63.5508 95.3883 64.2669 93.9583 64.2669C92.5283 64.2669 90.9517 63.5508 89.5125 61.5401C88.0917 59.5341 87.0833 56.3391 87.0833 52.7907C87.0833 49.2422 88.0917 46.0426 89.5125 44.0412C90.9517 42.0305 92.5283 41.3144 93.9583 41.3144ZM55 50.4954C48.8904 50.4954 44.6279 54.4662 42.5333 57.955C40.4525 61.4437 39.1692 64.3449 37.95 65.5568C37.2487 66.2775 32.8258 67.9439 28.215 70.2988C25.9096 71.4785 23.5858 73.0531 21.6287 75.4631C19.6579 77.8731 18.3288 81.2012 18.3288 84.9333C18.3288 93.747 25.5704 101 34.3704 101C38.3396 101 42.4829 99.7147 46.5392 98.567C50.6138 97.3919 55 96.4003 55 96.4003C55 96.4003 59.3862 97.3919 63.4517 98.5579C67.5125 99.7055 71.6558 100.991 75.625 100.991C84.425 100.991 91.6667 93.7378 91.6667 84.9241C91.6667 81.2792 90.3238 77.9465 88.3667 75.6054C86.4188 73.2505 84.0721 71.7953 81.785 70.5788C77.2017 68.1459 72.6963 66.2178 72.0454 65.5568C70.9454 64.4689 69.7079 61.4713 67.5996 57.9641C65.4958 54.4432 61.1417 50.4954 55 50.4954ZM55 59.6764C58.025 59.6764 58.3596 60.4109 59.7208 62.6878C61.0958 64.9601 62.1225 68.8207 65.45 72.1579C69.2313 75.9221 74.0071 76.7484 77.4858 78.603C79.2275 79.5303 80.5567 80.5172 81.3542 81.472C82.1471 82.4223 82.5 83.2899 82.5 84.9149C82.5 88.7709 79.475 91.8007 75.625 91.8007C74.2958 91.8007 70.015 90.7907 66.0275 89.6431C62.04 88.5093 58.74 87.2102 55 87.2102C51.26 87.2102 47.96 88.5093 43.9725 89.6431C39.985 90.7907 35.7042 91.8007 34.375 91.8007C30.525 91.8007 27.5 88.7709 27.5 84.9149C27.5 83.0649 27.885 82.1147 28.6458 81.1783C29.4067 80.2464 30.8092 79.3237 32.5142 78.4561C35.9242 76.7117 40.6725 76.0231 44.5454 72.1442C47.905 68.761 48.9133 64.7764 50.2746 62.5271C51.6129 60.2777 51.9338 59.658 54.9954 59.658L55 59.6764Z" fill="#EA221D"/>
</g>
<defs>
<clipPath id="clip0">
<rect width="110" height="136" fill="white"/>
</clipPath>
</defs>
</svg>
