<svg width="170" height="157" viewBox="0 0 170 157" fill="none" xmlns="http://www.w3.org/2000/svg">
<path d="M60.2083 0C52.6292 0 46.0275 4.32194 41.8342 10.2219C37.6408 16.122 35.4167 23.7422 35.4167 31.988C35.4167 40.2338 37.6408 47.8612 41.8342 53.7612C46.0275 59.6612 52.6292 63.976 60.2083 63.976C67.7875 63.976 74.3892 59.6541 78.5825 53.7541C82.7758 47.854 85 40.2338 85 31.988C85 23.7422 82.7758 16.1148 78.5825 10.2148C74.3892 4.31482 67.7875 0 60.2083 0ZM85 31.988C85 40.2338 87.2242 47.8612 91.4175 53.7612C95.6108 59.6612 102.22 63.976 109.792 63.976C117.371 63.976 123.973 59.6541 128.166 53.7541C132.359 47.854 134.583 40.2338 134.583 31.988C134.583 23.7422 132.359 16.1148 128.166 10.2148C123.973 4.31482 117.371 0 109.792 0C102.213 0 95.6108 4.32194 91.4175 10.2219C87.2242 16.122 85 23.7422 85 31.988ZM60.2083 14.2169C62.4183 14.2169 64.855 15.3258 67.0792 18.4393C69.275 21.5457 70.8333 26.4932 70.8333 31.988C70.8333 37.4828 69.275 42.4374 67.0792 45.5367C64.855 48.6502 62.4183 49.7591 60.2083 49.7591C57.9983 49.7591 55.5617 48.6502 53.3375 45.5367C51.1417 42.4303 49.5833 37.4828 49.5833 31.988C49.5833 26.4932 51.1417 21.5386 53.3375 18.4393C55.5617 15.3258 57.9983 14.2169 60.2083 14.2169ZM109.792 14.2169C112.002 14.2169 114.438 15.3258 116.662 18.4393C118.858 21.5457 120.417 26.4932 120.417 31.988C120.417 37.4828 118.858 42.4374 116.662 45.5367C114.438 48.6502 112.002 49.7591 109.792 49.7591C107.582 49.7591 105.145 48.6502 102.921 45.5367C100.725 42.4303 99.1667 37.4828 99.1667 31.988C99.1667 26.4932 100.725 21.5386 102.921 18.4393C105.145 15.3258 107.582 14.2169 109.792 14.2169ZM24.7917 49.7591C17.2125 49.7591 10.6108 54.081 6.4175 59.981C2.22417 65.8811 0 73.5013 0 81.7471C0 89.9929 2.22417 97.6203 6.4175 103.52C10.6108 109.42 17.2125 113.735 24.7917 113.735C32.3708 113.735 38.9725 109.413 43.1658 103.513C47.3592 97.6132 49.5833 89.9929 49.5833 81.7471C49.5833 73.5013 47.3592 65.874 43.1658 59.9739C38.9725 54.0739 32.3708 49.7591 24.7917 49.7591ZM145.208 49.7591C137.629 49.7591 131.027 54.081 126.834 59.981C122.641 65.8811 120.417 73.5013 120.417 81.7471C120.417 89.9929 122.641 97.6203 126.834 103.52C131.027 109.42 137.629 113.735 145.208 113.735C152.788 113.735 159.389 109.413 163.583 103.513C167.776 97.6132 170 89.9929 170 81.7471C170 73.5013 167.776 65.874 163.583 59.9739C159.389 54.0739 152.788 49.7591 145.208 49.7591ZM24.7917 63.976C27.0017 63.976 29.4383 65.0849 31.6625 68.1984C33.8583 71.3048 35.4167 76.2523 35.4167 81.7471C35.4167 87.2419 33.8583 92.1965 31.6625 95.2958C29.4383 98.4093 27.0017 99.5182 24.7917 99.5182C22.5817 99.5182 20.145 98.4093 17.9208 95.2958C15.725 92.1965 14.1667 87.2419 14.1667 81.7471C14.1667 76.2523 15.725 71.2977 17.9208 68.1984C20.145 65.0849 22.5817 63.976 24.7917 63.976ZM145.208 63.976C147.418 63.976 149.855 65.0849 152.079 68.1984C154.275 71.3048 155.833 76.2523 155.833 81.7471C155.833 87.2419 154.275 92.1965 152.079 95.2958C149.855 98.4093 147.418 99.5182 145.208 99.5182C142.998 99.5182 140.562 98.4093 138.338 95.2958C136.142 92.1894 134.583 87.2419 134.583 81.7471C134.583 76.2523 136.142 71.2977 138.338 68.1984C140.562 65.0849 142.998 63.976 145.208 63.976ZM85 78.1929C75.5579 78.1929 68.9704 84.3417 65.7333 89.7441C62.5175 95.1465 60.5342 99.6391 58.65 101.516C57.5662 102.632 50.7308 105.212 43.605 108.859C40.0421 110.686 36.4508 113.124 33.4263 116.856C30.3804 120.588 28.3263 125.741 28.3263 131.52C28.3263 145.169 39.5179 156.4 53.1179 156.4C59.2521 156.4 65.6554 154.41 71.9242 152.633C78.2213 150.813 85 149.277 85 149.277C85 149.277 91.7787 150.813 98.0617 152.618C104.338 154.395 110.741 156.386 116.875 156.386C130.475 156.386 141.667 145.154 141.667 131.506C141.667 125.862 139.591 120.701 136.567 117.076C133.556 113.429 129.93 111.176 126.395 109.292C119.312 105.525 112.349 102.539 111.343 101.516C109.643 99.831 107.73 95.1892 104.472 89.7583C101.221 84.3062 94.4917 78.1929 85 78.1929ZM85 92.4098C89.675 92.4098 90.1921 93.5471 92.2958 97.0729C94.4208 100.592 96.0075 106.57 101.15 111.738C106.994 117.567 114.375 118.846 119.751 121.718C122.443 123.154 124.497 124.682 125.729 126.161C126.955 127.632 127.5 128.976 127.5 131.492C127.5 137.463 122.825 142.155 116.875 142.155C114.821 142.155 108.205 140.591 102.043 138.814C95.88 137.058 90.78 135.046 85 135.046C79.22 135.046 74.12 137.058 67.9575 138.814C61.795 140.591 55.1792 142.155 53.125 142.155C47.175 142.155 42.5 137.463 42.5 131.492C42.5 128.627 43.095 127.156 44.2708 125.706C45.4467 124.263 47.6142 122.834 50.2492 121.49C55.5192 118.789 62.8575 117.723 68.8429 111.716C74.035 106.477 75.5933 100.307 77.6971 96.8241C79.7654 93.341 80.2612 92.3813 84.9929 92.3813L85 92.4098Z" fill="#EA221D"/>
</svg>
