<svg width="147" height="30" viewBox="0 0 147 30" fill="none" xmlns="http://www.w3.org/2000/svg">
<path d="M52.2794 22H49.9759V11.4685H46.6184C46.5391 13.0098 46.4258 14.3443 46.2784 15.472C46.1368 16.594 45.9639 17.5517 45.7599 18.345C45.5616 19.1327 45.3321 19.773 45.0714 20.266C44.8164 20.759 44.5359 21.1443 44.2299 21.422C43.9239 21.694 43.5953 21.881 43.2439 21.983C42.8926 22.0793 42.5243 22.1275 42.1389 22.1275C41.7309 22.1275 41.4334 22.0907 41.2464 22.017C41.0594 21.9433 40.9659 21.8357 40.9659 21.694V20.266H41.6204C41.7678 20.266 41.9151 20.249 42.0624 20.215C42.2154 20.181 42.3656 20.1102 42.5129 20.0025C42.6659 19.8892 42.8133 19.7277 42.9549 19.518C43.1023 19.3083 43.2411 19.0278 43.3714 18.6765C43.5074 18.3195 43.6321 17.8832 43.7454 17.3675C43.8644 16.8518 43.9693 16.2313 44.0599 15.506C44.1563 14.7807 44.2384 13.942 44.3064 12.99C44.3801 12.0323 44.4339 10.9387 44.4679 9.709H52.2794V22Z" fill="#EA221D"/>
<path d="M59.0785 18.277C58.4722 18.3053 57.9622 18.3592 57.5485 18.4385C57.1348 18.5122 56.8033 18.6085 56.554 18.7275C56.3047 18.8465 56.1262 18.9853 56.0185 19.144C55.9108 19.3027 55.857 19.4755 55.857 19.6625C55.857 20.0308 55.9647 20.2943 56.18 20.453C56.401 20.6117 56.6872 20.691 57.0385 20.691C57.4692 20.691 57.8403 20.6145 58.152 20.4615C58.4693 20.3028 58.7782 20.0648 59.0785 19.7475V18.277ZM54.2675 14.4945C55.2705 13.5765 56.4775 13.1175 57.8885 13.1175C58.3985 13.1175 58.8547 13.2025 59.257 13.3725C59.6593 13.5368 59.9993 13.7692 60.277 14.0695C60.5547 14.3642 60.7643 14.7183 60.906 15.132C61.0533 15.5457 61.127 15.999 61.127 16.492V22H60.175C59.9767 22 59.8237 21.9717 59.716 21.915C59.6083 21.8527 59.5233 21.7308 59.461 21.5495L59.274 20.9205C59.053 21.1188 58.8377 21.2945 58.628 21.4475C58.4183 21.5948 58.2002 21.7195 57.9735 21.8215C57.7468 21.9235 57.5032 22 57.2425 22.051C56.9875 22.1077 56.7042 22.136 56.3925 22.136C56.0242 22.136 55.6842 22.0878 55.3725 21.9915C55.0608 21.8895 54.7917 21.7393 54.565 21.541C54.3383 21.3427 54.1627 21.0962 54.038 20.8015C53.9133 20.5068 53.851 20.164 53.851 19.773C53.851 19.552 53.8878 19.3338 53.9615 19.1185C54.0352 18.8975 54.1542 18.6878 54.3185 18.4895C54.4885 18.2912 54.7067 18.1042 54.973 17.9285C55.2393 17.7528 55.5652 17.5998 55.9505 17.4695C56.3415 17.3392 56.7948 17.2343 57.3105 17.155C57.8262 17.07 58.4155 17.019 59.0785 17.002V16.492C59.0785 15.9083 58.9538 15.4777 58.7045 15.2C58.4552 14.9167 58.0953 14.775 57.625 14.775C57.285 14.775 57.0017 14.8147 56.775 14.894C56.554 14.9733 56.3585 15.064 56.1885 15.166C56.0185 15.2623 55.8627 15.3502 55.721 15.4295C55.585 15.5088 55.432 15.5485 55.262 15.5485C55.1147 15.5485 54.99 15.5117 54.888 15.438C54.786 15.3587 54.7038 15.268 54.6415 15.166L54.2675 14.4945Z" fill="#EA221D"/>
<path d="M70.7033 22H68.6038V14.8345H65.2038V22H63.1043V13.279H70.7033V22Z" fill="#EA221D"/>
<path d="M77.9935 13.8315C78.0955 13.6672 78.2344 13.534 78.41 13.432C78.5857 13.33 78.7727 13.279 78.971 13.279H80.62L78.5885 16.5175C78.4469 16.7442 78.3024 16.9283 78.155 17.07C78.0077 17.206 77.8292 17.3137 77.6195 17.393C77.9029 17.478 78.1352 17.6055 78.3165 17.7755C78.4979 17.9398 78.6622 18.1495 78.8095 18.4045L80.8495 22H79.396C79.0277 22 78.7415 21.9377 78.5375 21.813C78.3335 21.6883 78.1607 21.5098 78.019 21.2775L76.7355 18.8635C76.6222 18.6538 76.4749 18.498 76.2935 18.396C76.1179 18.294 75.911 18.243 75.673 18.243H74.8825V22H72.783V13.279H74.8825V16.8745H75.5625C75.8005 16.8745 75.9904 16.832 76.132 16.747C76.2794 16.6563 76.404 16.5203 76.506 16.339L77.9935 13.8315Z" fill="#EA221D"/>
<path d="M89.8505 13.279V22H87.751V16.9085C87.751 16.7782 87.7567 16.6365 87.768 16.4835C87.785 16.3248 87.8048 16.1662 87.8275 16.0075C87.7142 16.2682 87.5895 16.4977 87.4535 16.696C87.4422 16.7073 87.3855 16.7867 87.2835 16.934C87.1815 17.0757 87.0483 17.2598 86.884 17.4865C86.7253 17.7132 86.544 17.971 86.34 18.26C86.136 18.5433 85.9292 18.8323 85.7195 19.127C85.2265 19.824 84.6683 20.6117 84.045 21.49C83.9657 21.609 83.8608 21.7252 83.7305 21.8385C83.6058 21.9518 83.4613 22.0085 83.297 22.0085H82.0135V13.2875H84.113V18.379C84.113 18.5093 84.1045 18.6538 84.0875 18.8125C84.0762 18.9655 84.0592 19.1213 84.0365 19.28C84.1612 19.0023 84.2858 18.7728 84.4105 18.5915C84.4162 18.5802 84.47 18.5037 84.572 18.362C84.674 18.2203 84.8043 18.0362 84.963 17.8095C85.1273 17.5828 85.3115 17.3278 85.5155 17.0445C85.7195 16.7555 85.9263 16.4608 86.136 16.1605C86.629 15.4635 87.19 14.6758 87.819 13.7975C87.8983 13.6728 88.0032 13.5567 88.1335 13.449C88.2638 13.3357 88.4112 13.279 88.5755 13.279H89.8505Z" fill="#EA221D"/>
<path d="M104.159 20.2405V11.4685H100.801C100.733 12.6755 100.64 13.7465 100.521 14.6815C100.408 15.6165 100.274 16.4382 100.121 17.1465C99.9684 17.8548 99.7984 18.4612 99.6114 18.9655C99.4244 19.4698 99.2233 19.8948 99.0079 20.2405H104.159ZM108.366 20.2405V24.2695C108.366 24.4678 108.298 24.6265 108.162 24.7455C108.032 24.8645 107.859 24.924 107.644 24.924H106.267V22H97.2399V24.2695C97.2399 24.4678 97.1719 24.6265 97.0359 24.7455C96.9056 24.8645 96.7328 24.924 96.5174 24.924H95.1404V20.2405H96.4834C96.6421 20.1555 96.7979 20.0195 96.9509 19.8325C97.1096 19.6455 97.2626 19.382 97.4099 19.042C97.5573 18.702 97.6961 18.2713 97.8264 17.75C97.9624 17.2287 98.0843 16.594 98.1919 15.846C98.2996 15.0923 98.3903 14.2112 98.4639 13.2025C98.5433 12.1938 98.6028 11.0293 98.6424 9.709H106.454V20.2405H108.366Z" fill="#EA221D"/>
<path d="M113.215 13.143C113.861 13.143 114.448 13.2478 114.975 13.4575C115.507 13.6672 115.961 13.9647 116.335 14.35C116.714 14.7353 117.006 15.2057 117.21 15.761C117.414 16.3163 117.516 16.9368 117.516 17.6225C117.516 18.3138 117.414 18.9372 117.21 19.4925C117.006 20.0478 116.714 20.521 116.335 20.912C115.961 21.303 115.507 21.6033 114.975 21.813C114.448 22.0227 113.861 22.1275 113.215 22.1275C112.564 22.1275 111.971 22.0227 111.439 21.813C110.906 21.6033 110.45 21.303 110.07 20.912C109.696 20.521 109.404 20.0478 109.195 19.4925C108.991 18.9372 108.889 18.3138 108.889 17.6225C108.889 16.9368 108.991 16.3163 109.195 15.761C109.404 15.2057 109.696 14.7353 110.07 14.35C110.45 13.9647 110.906 13.6672 111.439 13.4575C111.971 13.2478 112.564 13.143 113.215 13.143ZM113.215 20.5125C113.941 20.5125 114.476 20.2688 114.822 19.7815C115.173 19.2942 115.349 18.5802 115.349 17.6395C115.349 16.6988 115.173 15.982 114.822 15.489C114.476 14.996 113.941 14.7495 113.215 14.7495C112.479 14.7495 111.932 14.9988 111.575 15.4975C111.223 15.9905 111.048 16.7045 111.048 17.6395C111.048 18.5745 111.223 19.2885 111.575 19.7815C111.932 20.2688 112.479 20.5125 113.215 20.5125Z" fill="#EA221D"/>
<path d="M123.215 20.5975C123.94 20.5975 124.481 20.3652 124.838 19.9005C125.195 19.4358 125.374 18.7558 125.374 17.8605C125.374 16.9708 125.198 16.2937 124.847 15.829C124.501 15.3643 123.971 15.132 123.257 15.132C122.543 15.132 121.999 15.353 121.625 15.795C121.251 16.2313 121.064 16.8858 121.064 17.7585C121.064 18.6822 121.24 19.3877 121.591 19.875C121.948 20.3567 122.49 20.5975 123.215 20.5975ZM123.827 11.698C123.294 11.732 122.838 11.8368 122.458 12.0125C122.084 12.1825 121.773 12.4148 121.523 12.7095C121.28 12.9985 121.093 13.347 120.962 13.755C120.838 14.1573 120.764 14.605 120.741 15.098C120.883 14.877 121.056 14.6758 121.26 14.4945C121.47 14.3075 121.702 14.1488 121.957 14.0185C122.218 13.8825 122.498 13.7777 122.798 13.704C123.104 13.6303 123.43 13.5935 123.776 13.5935C124.354 13.5935 124.875 13.6955 125.34 13.8995C125.805 14.1035 126.198 14.3925 126.521 14.7665C126.85 15.1405 127.099 15.591 127.269 16.118C127.445 16.6393 127.533 17.2173 127.533 17.852C127.533 18.5093 127.428 19.1015 127.218 19.6285C127.014 20.1555 126.723 20.606 126.343 20.98C125.969 21.3483 125.516 21.6317 124.983 21.83C124.45 22.0283 123.861 22.1275 123.215 22.1275C122.586 22.1275 122.005 22.0255 121.472 21.8215C120.945 21.6175 120.489 21.286 120.104 20.827C119.719 20.368 119.418 19.773 119.203 19.042C118.988 18.3053 118.88 17.4072 118.88 16.3475C118.88 15.4578 118.962 14.6305 119.126 13.8655C119.291 13.1005 119.56 12.4318 119.934 11.8595C120.308 11.2815 120.798 10.8168 121.404 10.4655C122.011 10.1142 122.759 9.9045 123.648 9.8365L126.751 9.5985L126.861 10.6865C126.884 10.9188 126.85 11.1172 126.759 11.2815C126.669 11.4402 126.507 11.5252 126.275 11.5365L123.827 11.698Z" fill="#EA221D"/>
<path d="M131.261 19.739C131.499 20.028 131.757 20.232 132.035 20.351C132.318 20.47 132.624 20.5295 132.953 20.5295C133.27 20.5295 133.556 20.47 133.811 20.351C134.066 20.232 134.282 20.0507 134.457 19.807C134.639 19.5633 134.778 19.2573 134.874 18.889C134.97 18.515 135.018 18.0758 135.018 17.5715C135.018 17.0615 134.976 16.6308 134.891 16.2795C134.812 15.9225 134.695 15.6335 134.542 15.4125C134.389 15.1915 134.202 15.03 133.981 14.928C133.766 14.826 133.52 14.775 133.242 14.775C132.806 14.775 132.434 14.8685 132.128 15.0555C131.822 15.2368 131.533 15.4947 131.261 15.829V19.739ZM131.151 14.469C131.508 14.0667 131.913 13.7408 132.366 13.4915C132.82 13.2422 133.352 13.1175 133.964 13.1175C134.44 13.1175 134.874 13.2167 135.265 13.415C135.662 13.6133 136.002 13.9023 136.285 14.282C136.574 14.656 136.795 15.1207 136.948 15.676C137.107 16.2257 137.186 16.8575 137.186 17.5715C137.186 18.2232 137.098 18.8267 136.922 19.382C136.747 19.9373 136.495 20.419 136.166 20.827C135.843 21.235 135.449 21.5552 134.984 21.7875C134.525 22.0142 134.01 22.1275 133.437 22.1275C132.95 22.1275 132.534 22.0538 132.188 21.9065C131.842 21.7535 131.533 21.5438 131.261 21.2775V24.8475H129.162V13.279H130.445C130.717 13.279 130.896 13.4065 130.981 13.6615L131.151 14.469Z" fill="#EA221D"/>
<path d="M143.414 18.277C142.808 18.3053 142.298 18.3592 141.884 18.4385C141.471 18.5122 141.139 18.6085 140.89 18.7275C140.641 18.8465 140.462 18.9853 140.354 19.144C140.247 19.3027 140.193 19.4755 140.193 19.6625C140.193 20.0308 140.301 20.2943 140.516 20.453C140.737 20.6117 141.023 20.691 141.374 20.691C141.805 20.691 142.176 20.6145 142.488 20.4615C142.805 20.3028 143.114 20.0648 143.414 19.7475V18.277ZM138.603 14.4945C139.606 13.5765 140.813 13.1175 142.224 13.1175C142.734 13.1175 143.191 13.2025 143.593 13.3725C143.995 13.5368 144.335 13.7692 144.613 14.0695C144.891 14.3642 145.1 14.7183 145.242 15.132C145.389 15.5457 145.463 15.999 145.463 16.492V22H144.511C144.313 22 144.16 21.9717 144.052 21.915C143.944 21.8527 143.859 21.7308 143.797 21.5495L143.61 20.9205C143.389 21.1188 143.174 21.2945 142.964 21.4475C142.754 21.5948 142.536 21.7195 142.309 21.8215C142.083 21.9235 141.839 22 141.578 22.051C141.323 22.1077 141.04 22.136 140.728 22.136C140.36 22.136 140.02 22.0878 139.708 21.9915C139.397 21.8895 139.128 21.7393 138.901 21.541C138.674 21.3427 138.499 21.0962 138.374 20.8015C138.249 20.5068 138.187 20.164 138.187 19.773C138.187 19.552 138.224 19.3338 138.297 19.1185C138.371 18.8975 138.49 18.6878 138.654 18.4895C138.824 18.2912 139.043 18.1042 139.309 17.9285C139.575 17.7528 139.901 17.5998 140.286 17.4695C140.677 17.3392 141.131 17.2343 141.646 17.155C142.162 17.07 142.751 17.019 143.414 17.002V16.492C143.414 15.9083 143.29 15.4777 143.04 15.2C142.791 14.9167 142.431 14.775 141.961 14.775C141.621 14.775 141.338 14.8147 141.111 14.894C140.89 14.9733 140.694 15.064 140.524 15.166C140.354 15.2623 140.199 15.3502 140.057 15.4295C139.921 15.5088 139.768 15.5485 139.598 15.5485C139.451 15.5485 139.326 15.5117 139.224 15.438C139.122 15.3587 139.04 15.268 138.977 15.166L138.603 14.4945Z" fill="#EA221D"/>
<path d="M11.6875 0C10.2162 0 8.93475 0.829016 8.12075 1.96073C7.30675 3.09245 6.875 4.55413 6.875 6.13581C6.875 7.71748 7.30675 9.18053 8.12075 10.3122C8.93475 11.444 10.2162 12.2716 11.6875 12.2716C13.1588 12.2716 14.4402 11.4426 15.2542 10.3109C16.0683 9.17917 16.5 7.71748 16.5 6.13581C16.5 4.55413 16.0683 3.09108 15.2542 1.95937C14.4402 0.827652 13.1588 0 11.6875 0ZM16.5 6.13581C16.5 7.71748 16.9317 9.18053 17.7458 10.3122C18.5597 11.444 19.8426 12.2716 21.3125 12.2716C22.7838 12.2716 24.0653 11.4426 24.8792 10.3109C25.6933 9.17917 26.125 7.71748 26.125 6.13581C26.125 4.55413 25.6933 3.09108 24.8792 1.95937C24.0653 0.827652 22.7838 0 21.3125 0C19.8412 0 18.5597 0.829016 17.7458 1.96073C16.9317 3.09245 16.5 4.55413 16.5 6.13581ZM11.6875 2.72702C12.1165 2.72702 12.5895 2.93973 13.0213 3.53695C13.4475 4.13281 13.75 5.08181 13.75 6.13581C13.75 7.1898 13.4475 8.14017 13.0213 8.73466C12.5895 9.33188 12.1165 9.54459 11.6875 9.54459C11.2585 9.54459 10.7855 9.33188 10.3537 8.73466C9.9275 8.13881 9.625 7.1898 9.625 6.13581C9.625 5.08181 9.9275 4.13144 10.3537 3.53695C10.7855 2.93973 11.2585 2.72702 11.6875 2.72702ZM21.3125 2.72702C21.7415 2.72702 22.2145 2.93973 22.6462 3.53695C23.0725 4.13281 23.375 5.08181 23.375 6.13581C23.375 7.1898 23.0725 8.14017 22.6462 8.73466C22.2145 9.33188 21.7415 9.54459 21.3125 9.54459C20.8835 9.54459 20.4105 9.33188 19.9788 8.73466C19.5525 8.13881 19.25 7.1898 19.25 6.13581C19.25 5.08181 19.5525 4.13144 19.9788 3.53695C20.4105 2.93973 20.8835 2.72702 21.3125 2.72702ZM4.8125 9.54459C3.34125 9.54459 2.05975 10.3736 1.24575 11.5053C0.43175 12.637 0 14.0987 0 15.6804C0 17.2621 0.43175 18.7251 1.24575 19.8568C2.05975 20.9885 3.34125 21.8162 4.8125 21.8162C6.28375 21.8162 7.56525 20.9872 8.37925 19.8555C9.19325 18.7238 9.625 17.2621 9.625 15.6804C9.625 14.0987 9.19325 12.6357 8.37925 11.504C7.56525 10.3722 6.28375 9.54459 4.8125 9.54459ZM28.1875 9.54459C26.7162 9.54459 25.4347 10.3736 24.6208 11.5053C23.8067 12.637 23.375 14.0987 23.375 15.6804C23.375 17.2621 23.8067 18.7251 24.6208 19.8568C25.4347 20.9885 26.7162 21.8162 28.1875 21.8162C29.6588 21.8162 30.9403 20.9872 31.7542 19.8555C32.5682 18.7238 33 17.2621 33 15.6804C33 14.0987 32.5682 12.6357 31.7542 11.504C30.9403 10.3722 29.6588 9.54459 28.1875 9.54459ZM4.8125 12.2716C5.2415 12.2716 5.7145 12.4843 6.14625 13.0815C6.5725 13.6774 6.875 14.6264 6.875 15.6804C6.875 16.7344 6.5725 17.6848 6.14625 18.2792C5.7145 18.8765 5.2415 19.0892 4.8125 19.0892C4.3835 19.0892 3.9105 18.8765 3.47875 18.2792C3.0525 17.6848 2.75 16.7344 2.75 15.6804C2.75 14.6264 3.0525 13.676 3.47875 13.0815C3.9105 12.4843 4.3835 12.2716 4.8125 12.2716ZM28.1875 12.2716C28.6165 12.2716 29.0895 12.4843 29.5212 13.0815C29.9475 13.6774 30.25 14.6264 30.25 15.6804C30.25 16.7344 29.9475 17.6848 29.5212 18.2792C29.0895 18.8765 28.6165 19.0892 28.1875 19.0892C27.7585 19.0892 27.2855 18.8765 26.8538 18.2792C26.4275 17.6834 26.125 16.7344 26.125 15.6804C26.125 14.6264 26.4275 13.676 26.8538 13.0815C27.2855 12.4843 27.7585 12.2716 28.1875 12.2716ZM16.5 14.9986C14.6671 14.9986 13.3884 16.1781 12.76 17.2143C12.1357 18.2506 11.7507 19.1124 11.385 19.4723C11.1746 19.6864 9.84775 20.1813 8.4645 20.8808C7.77288 21.2313 7.07575 21.6989 6.48862 22.4148C5.89737 23.1306 5.49863 24.1192 5.49863 25.2277C5.49863 27.8457 7.67112 30 10.3111 30C11.5019 30 12.7449 29.6182 13.9618 29.2773C15.1841 28.9283 16.5 28.6338 16.5 28.6338C16.5 28.6338 17.8159 28.9283 19.0355 29.2746C20.2537 29.6155 21.4967 29.9973 22.6875 29.9973C25.3275 29.9973 27.5 27.8429 27.5 25.225C27.5 24.1424 27.0971 23.1524 26.51 22.457C25.9256 21.7576 25.2216 21.3253 24.5355 20.964C23.1605 20.2413 21.8089 19.6687 21.6136 19.4723C21.2836 19.1492 20.9124 18.2588 20.2799 17.2171C19.6488 16.1713 18.3425 14.9986 16.5 14.9986ZM16.5 17.7257C17.4075 17.7257 17.5079 17.9438 17.9163 18.6201C18.3288 19.2951 18.6368 20.4418 19.635 21.4331C20.7694 22.5511 22.2021 22.7966 23.2458 23.3474C23.7682 23.6229 24.167 23.916 24.4062 24.1996C24.6441 24.4819 24.75 24.7396 24.75 25.2223C24.75 26.3676 23.8425 27.2675 22.6875 27.2675C22.2887 27.2675 21.0045 26.9675 19.8083 26.6267C18.612 26.2899 17.622 25.904 16.5 25.904C15.378 25.904 14.388 26.2899 13.1917 26.6267C11.9955 26.9675 10.7113 27.2675 10.3125 27.2675C9.1575 27.2675 8.25 26.3676 8.25 25.2223C8.25 24.6728 8.3655 24.3905 8.59375 24.1124C8.822 23.8356 9.24275 23.5615 9.75425 23.3038C10.7773 22.7857 12.2017 22.5811 13.3636 21.429C14.3715 20.4241 14.674 19.2405 15.0824 18.5724C15.4839 17.9043 15.5801 17.7202 16.4986 17.7202L16.5 17.7257Z" fill="#EA221D"/>
</svg>
